<?xml version="1.0" standalone="no"?>
<!DOCTYPE svg PUBLIC "-//W3C//DTD SVG 20010904//EN"
 "http://www.w3.org/TR/2001/REC-SVG-20010904/DTD/svg10.dtd">
<svg version="1.0" xmlns="http://www.w3.org/2000/svg"
 width="200.000000pt" height="200.000000pt" viewBox="0 0 200.000000 200.000000"
 preserveAspectRatio="xMidYMid meet">
<metadata>
Created by potrace 1.14, written by Peter Selinger 2001-2017
</metadata>
<g transform="translate(0.000000,200.000000) scale(0.100000,-0.100000)"
fill="#000000" stroke="none">
<path d="M1285 1528 c-142 -111 -206 -185 -192 -222 10 -25 35 -19 51 13 9 16
57 67 107 114 65 60 90 90 86 101 -8 21 -17 20 -52 -6z"/>
<path d="M560 1498 c0 -18 14 -30 57 -53 37 -19 72 -48 98 -81 43 -55 72 -72
82 -48 14 38 -68 129 -156 174 -72 36 -81 37 -81 8z"/>
<path d="M328 1334 c-11 -10 -10 -54 1 -54 5 0 11 -8 13 -18 5 -16 23 -20 124
-30 66 -7 154 -14 197 -17 69 -4 77 -3 77 13 0 34 -46 64 -127 84 -83 20 -273
35 -285 22z"/>
<path d="M1530 1320 c-25 -4 -85 -12 -135 -19 -194 -25 -216 -31 -226 -59 -18
-47 -6 -54 68 -47 132 14 385 53 393 62 4 4 1 23 -6 41 -15 34 -17 34 -94 22z"/>
<path d="M1475 1039 c-44 -13 -130 -81 -133 -106 -2 -16 4 -23 26 -28 26 -5
36 0 73 37 59 58 61 34 7 -66 -50 -92 -127 -168 -207 -203 -63 -28 -214 -53
-322 -53 -75 0 -227 21 -281 39 -38 13 -68 3 -68 -23 0 -11 4 -25 8 -31 17
-23 88 -45 207 -65 307 -50 510 20 668 230 46 60 77 112 77 128 0 6 5 23 11
39 13 35 25 18 34 -49 8 -57 26 -76 50 -52 32 32 0 157 -48 188 -31 21 -67 26
-102 15z"/>
</g>
</svg>
